# xmcd
#
# Track frame offsets:
#	150
#	27300
#	45043
#	68158
#	83717
#	107061
#	129471
#	153578
#	175433
#	197784
#
# Disc length: 2927 seconds
#
# Revision: 1
# Processed by: cddbd v1.5.2PL0 Copyright (c) Steve Scherf et al.
# Submitted via: EasyCDDAExtractor 16.0.9.1
#
DISCID=7d0b6d0a
DTITLE=Nhu Quynh and Truong Vu - Tuoi Hoc Tro Thoi Chinh Chien
DYEAR=1900
DGENRE=
TTITLE0=Truong Vu - Mua Dem Tinh Le
TTITLE1=Nhu Quynh - Co Ban Hoc
TTITLE2=Truong Vu - Ha Buon
TTITLE3=Nhu Quynh - Mot Minh Thoi
TTITLE4=Truong Vu - Luu But Ngay Xanh
TTITLE5=Nhu Quynh - Thuyen Xa Ben Xua
TTITLE6=Truong Vu - 16 Trang Tron 
TTITLE7=Nhu Quynh - Trung Vuong Khung Cua Mua Thu
TTITLE8=Truong Vu - Ky Niem Mua He
TTITLE9=Nhu Quynh and Truong Vu - Dung Noi Xa Nhau
EXTD=
EXTT0=
EXTT1=
EXTT2=
EXTT3=
EXTT4=
EXTT5=
EXTT6=
EXTT7=
EXTT8=
EXTT9=
PLAYORDER=
